<?xml version="1.0" encoding="UTF-8"?>
<svg xmlns="http://www.w3.org/2000/svg" xmlns:xlink="http://www.w3.org/1999/xlink" width="52px" height="51px" viewBox="0 0 51 51" version="1.1">
<g id="surface1">
<path style=" stroke:none;fill-rule:evenodd;fill:rgb(0%,0%,0%);fill-opacity:1;" d="M 28.578125 29.464844 L 28.578125 50.828125 L 22.371094 50.828125 L 22.371094 29.464844 C 20.332031 28.34375 18.945312 26.148438 18.945312 23.625 C 18.945312 19.960938 21.871094 16.988281 25.476562 16.988281 C 29.078125 16.988281 32.003906 19.960938 32.003906 23.625 C 32.003906 26.148438 30.617188 28.34375 28.578125 29.464844 Z M 16.304688 4.707031 C 17.511719 4.101562 18.007812 2.613281 17.410156 1.382812 C 16.816406 0.15625 15.351562 -0.347656 14.144531 0.257812 C 9.210938 2.730469 5.371094 6.824219 2.949219 11.644531 C 1.15625 15.203125 0.136719 19.164062 0.0117188 23.160156 C -0.113281 27.191406 0.671875 31.261719 2.488281 35.011719 C 4.726562 39.628906 8.523438 43.734375 14.113281 46.640625 C 15.3125 47.261719 16.78125 46.777344 17.394531 45.5625 C 18.003906 44.34375 17.53125 42.851562 16.332031 42.230469 C 11.753906 39.851562 8.667969 36.53125 6.863281 32.816406 C 5.410156 29.820312 4.785156 26.554688 4.886719 23.316406 C 4.984375 20.046875 5.820312 16.808594 7.285156 13.898438 C 9.246094 10 12.339844 6.691406 16.304688 4.707031 Z M 36.804688 0.257812 C 35.597656 -0.351562 34.132812 0.15625 33.539062 1.382812 C 32.941406 2.613281 33.4375 4.101562 34.644531 4.707031 C 38.609375 6.691406 41.703125 9.996094 43.664062 13.898438 C 45.128906 16.808594 45.964844 20.046875 46.0625 23.316406 C 46.164062 26.554688 45.539062 29.820312 44.085938 32.816406 C 42.28125 36.53125 39.191406 39.851562 34.617188 42.230469 C 33.417969 42.851562 32.945312 44.34375 33.554688 45.5625 C 34.167969 46.777344 35.636719 47.261719 36.835938 46.640625 C 42.421875 43.734375 46.21875 39.628906 48.460938 35.011719 C 50.277344 31.261719 51.058594 27.191406 50.9375 23.160156 C 50.8125 19.164062 49.792969 15.203125 48 11.644531 C 45.574219 6.824219 41.738281 2.730469 36.804688 0.257812 Z M 34.328125 11.171875 C 33.417969 10.503906 32.148438 10.714844 31.492188 11.640625 C 30.839844 12.566406 31.042969 13.855469 31.953125 14.523438 C 32.320312 14.789062 32.679688 15.09375 33.035156 15.421875 C 35.09375 17.351562 36.316406 19.929688 36.574219 22.65625 C 36.835938 25.40625 36.113281 28.316406 34.285156 30.894531 C 33.976562 31.332031 33.617188 31.777344 33.214844 32.222656 C 32.453125 33.0625 32.507812 34.371094 33.332031 35.144531 C 34.160156 35.917969 35.449219 35.863281 36.207031 35.023438 C 36.699219 34.484375 37.15625 33.910156 37.582031 33.308594 C 40.011719 29.878906 40.96875 25.972656 40.617188 22.265625 C 40.265625 18.535156 38.597656 15.011719 35.789062 12.378906 C 35.347656 11.964844 34.859375 11.5625 34.328125 11.171875 Z M 18.996094 14.523438 C 19.90625 13.855469 20.113281 12.566406 19.457031 11.640625 C 18.800781 10.714844 17.53125 10.507812 16.621094 11.171875 C 16.089844 11.5625 15.601562 11.964844 15.160156 12.378906 C 12.347656 15.015625 10.679688 18.535156 10.328125 22.265625 C 9.980469 25.972656 10.933594 29.878906 13.367188 33.308594 C 13.792969 33.910156 14.25 34.484375 14.742188 35.023438 C 15.5 35.863281 16.789062 35.917969 17.613281 35.144531 C 18.441406 34.371094 18.496094 33.0625 17.734375 32.222656 C 17.328125 31.777344 16.972656 31.332031 16.664062 30.894531 C 14.835938 28.320312 14.113281 25.40625 14.375 22.65625 C 14.632812 19.929688 15.855469 17.355469 17.914062 15.421875 C 18.269531 15.09375 18.628906 14.792969 18.996094 14.523438 Z M 18.996094 14.523438 "/>
</g>
</svg>
